FILE "Rise of the Dragon Rev 199303 (1993)(Dynamix)(US).img" BINARY
  TRACK 01 MODE1/2352
    INDEX 01 00:00:00
  TRACK 02 AUDIO
    PREGAP 00:02:00
    INDEX 01 12:11:19
  TRACK 03 AUDIO
    INDEX 00 13:39:15
    INDEX 01 13:41:14
  TRACK 04 AUDIO
    INDEX 00 17:16:55
    INDEX 01 17:18:62
  TRACK 05 AUDIO
    INDEX 00 19:18:66
    INDEX 01 19:20:68
